PathFileType	4	(X/Y/Z)	C:/Users/opensim2020/Desktop/walking_exp_matlab/subject01_walking07_straight_02.trc																																																																																																																															
DataRate	CameraRate	NumFrames	NumMarkers	Units	OrigDataRate	OrigDataStartFrame	OrigNumFrames																																																																																																																											
100	100	8	43	mm	100	1518	178																																																																																																																											
Frame#	Time	LFHD			RFHD			LBHD			RBHD			C7			T10			CLAV			STRN			RBAK			LSHO			LUPA			LELB			LFRM			LWRA			LWRB			LFIN			RSHO			RUPA			RELB			RFRM			RWRA			RWRB			RFIN			LASI			RASI			LPSI			RPSI			LTHI			LKNE			LTIB			LANK			LHEE			LTOE			RTHI			RKNE			RTIB			RANK			RHEE			RTOE			*39			*40			*41			*42		
		X1	Y1	Z1	X2	Y2	Z2	X3	Y3	Z3	X4	Y4	Z4	X5	Y5	Z5	X6	Y6	Z6	X7	Y7	Z7	X8	Y8	Z8	X9	Y9	Z9	X10	Y10	Z10	X11	Y11	Z11	X12	Y12	Z12	X13	Y13	Z13	X14	Y14	Z14	X15	Y15	Z15	X16	Y16	Z16	X17	Y17	Z17	X18	Y18	Z18	X19	Y19	Z19	X20	Y20	Z20	X21	Y21	Z21	X22	Y22	Z22	X23	Y23	Z23	X24	Y24	Z24	X25	Y25	Z25	X26	Y26	Z26	X27	Y27	Z27	X28	Y28	Z28	X29	Y29	Z29	X30	Y30	Z30	X31	Y31	Z31	X32	Y32	Z32	X33	Y33	Z33	X34	Y34	Z34	X35	Y35	Z35	X36	Y36	Z36	X37	Y37	Z37	X38	Y38	Z38	X39	Y39	Z39	X40	Y40	Z40	X41	Y41	Z41	X42	Y42	Z42	X43	Y43	Z43
																																																																																																																																		
90	0.89	-108.58485	1662.24243	1024.36914	-74.97868	1668.44824	1134.44666	-220.8186	1615.80115	1054.21191	-189.24567	1621.96838	1170.88989	-249.22163	1421.17529	1087.56079	-280.50647	1127.58972	1088.57202	-104.81587	1355.33105	1086.31494	-59.10017	1201.16309	1077.96704	-301.11911	1224.82556	1157.67419	-165.53624	1387.05664	925.12256	-183.09157	1204.78955	833.68182	-175.46411	1051.39319	820.08484	-91.65881	972.2865	790.56702	33.69271	913.21448	802.81403	-11.25624	880.90521	780.37842	64.87609	849.2489	764.42438	-166.67581	1381.6604	1239.91016	-251.84073	1183.87219	1325.37158	-266.39026	1061.90271	1321.75757	-267.67166	942.36353	1351.17126	-215.35675	810.1438	1334.95935	-260.87848	820.58478	1371.0459	-245.97438	733.74451	1361.22083	-113.16413	920.76709	970.15948	-98.11557	926.21265	1187.13196	-295.20605	932.26416	1037.66895	-284.06476	931.37048	1183.08435	-205.44641	592.22552	924.23853	-249.46124	461.57703	938.00336	-378.50516	319.49197	930.23065	-503.76755	136.99118	980.81769	-554.37189	135.19127	1033.41736	-395.12543	35.95654	982.05853	-77.86216	603.11993	1253.3136	-20.94074	458.02454	1224.64917	-33.92567	283.06366	1237.02612	-15.79701	75.48512	1197.88452	-61.07674	34.94075	1148.09546	126.74632	42.55389	1194.55127	-91.62577	1701.91748	1114.18347	-1973.1814	1023.45184	3102.0415	-2012.47021	1022.11285	3140.59277	NaN	NaN	NaN
91	0.9	-98.42068	1662.86743	1026.50305	-64.5261	1669.03357	1136.44995	-210.6048	1616.44287	1056.68506	-178.66495	1622.6283	1173.31958	-238.78777	1421.89661	1089.83447	-269.83871	1128.03674	1090.28442	-94.39306	1356.11523	1088.34021	-49.09853	1202.10071	1079.70605	-290.42654	1225.34839	1159.86731	-155.44464	1387.89172	927.32361	-174.2103	1205.69458	835.80133	-167.51752	1052.3689	822.11407	-85.20274	971.62347	792.578	39.08264	910.30585	804.49628	-6.59904	878.64709	782.6521	68.66455	845.72064	766.01526	-156.13617	1381.92175	1241.9165	-239.507	1183.50659	1328.10681	-253.53297	1061.40393	1324.07483	-253.80618	941.8717	1353.25989	-200.77859	810.00409	1336.62769	-246.22928	820.16626	1373.01086	-230.65636	733.41345	1363.08667	-101.87778	921.10229	971.97656	-86.7625	927.52631	1188.51917	-283.64957	932.41022	1038.52075	-272.82227	932.63263	1183.96338	-189.98309	591.55682	925.6731	-231.89372	460.58755	938.37439	-365.74902	322.70557	930.11292	-496.5144	143.59897	979.86334	-546.05896	144.36591	1033.20911	-394.47025	36.15945	982.05402	-68.89924	603.37286	1254.16223	-11.79199	457.95007	1225.29517	-26.19596	282.53668	1238.37524	-14.04667	75.11132	1197.43494	-60.15281	35.35981	1148.2793	127.67123	40.50418	1194.64404	-80.887	1702.60242	1116.27869	-1972.93762	1024.03601	3102.1665	-2012.6123	1022.25433	3140.60352	NaN	NaN	NaN
92	0.91	-88.37267	1663.58215	1028.75745	-54.09988	1669.73193	1138.66858	-200.44168	1617.14221	1059.19824	-168.17635	1623.27844	1175.82593	-228.57657	1422.4259	1092.00171	-259.23813	1128.67688	1091.96863	-83.96078	1357.02283	1090.35291	-38.42205	1203.19312	1081.25305	-279.67557	1225.73621	1161.82739	-145.38605	1388.82483	929.48529	-165.0025	1206.69971	838.23462	-159.26326	1053.66211	824.03882	-78.7143	971.21112	794.6167	44.0402	907.18622	806.41357	-2.35094	876.27448	784.93011	71.81264	841.87903	767.95026	-145.49982	1382.3866	1244.10193	-227.2957	1183.30591	1330.31189	-240.53223	1061.1626	1326.33411	-239.81151	941.60266	1355.27844	-185.8445	810.14752	1338.46802	-230.96184	820.03308	1375.25903	-214.94479	733.37885	1365.16553	-90.92191	921.57385	974.02576	-75.58276	928.85077	1189.97668	-272.22705	932.94507	1039.51904	-262.50046	934.53845	1184.99976	-173.74622	590.98773	926.60773	-213.92873	459.78644	938.03473	-351.93304	325.99271	930.25867	-487.57477	150.6712	979.31085	-535.83777	153.90999	1033.51331	-393.37729	36.35894	982.32294	-59.51583	603.57129	1254.4115	-3.29474	457.32162	1225.96362	-20.25237	281.49454	1239.68018	-12.94965	74.99728	1197.15271	-60.16034	35.49585	1148.07422	128.60211	39.19719	1194.57861	-70.4878	1703.18384	1118.41406	-1973.11548	1023.31909	3101.91846	-2012.55554	1022.00702	3140.65601	NaN	NaN	NaN
93	0.92	-78.2875	1664.75012	1030.74731	-43.73318	1670.43628	1140.82104	-190.51939	1617.88574	1061.20544	-157.6828	1623.89331	1178.16553	-218.60585	1422.94153	1094.23999	-248.66396	1129.32861	1093.48071	-73.66915	1358.04773	1092.18567	-27.78815	1204.31873	1082.65344	-268.88666	1226.12354	1163.68005	-135.27232	1389.91797	931.58435	-155.85938	1207.95862	840.24689	-151.44519	1055.1272	825.56262	-72.34197	970.91815	796.74121	48.72201	903.94904	808.42023	1.52404	873.94885	787.26276	74.80907	837.66119	770.16187	-134.8949	1383.04712	1246.02393	-214.96696	1183.36536	1332.58069	-227.41751	1061.11218	1328.62012	-225.52991	941.62207	1357.52307	-170.51154	810.64087	1340.42334	-215.77084	820.15363	1377.31335	-198.85974	733.63513	1367.33667	-80.05409	922.33105	976.32379	-64.68819	930.03448	1191.76538	-261.17941	933.77625	1040.76514	-251.21593	936.39044	1186.32507	-156.74614	590.26123	927.27954	-195.23471	459.12402	937.3183	-337.41965	329.70432	930.07104	-477.71399	157.91469	978.62024	-523.80878	163.58925	1034.04565	-392.34302	36.37777	982.64752	-49.75849	603.86542	1255.09961	4.29934	456.38956	1226.87268	-16.13136	280.60883	1240.90222	-11.88628	74.77818	1197.05188	-59.705	35.71836	1148.23438	129.46915	38.05618	1193.78955	-60.28572	1703.94556	1120.70203	-1973.09521	1023.3161	3101.9104	-2012.50928	1021.97778	3140.5896	NaN	NaN	NaN
94	0.93	-68.21413	1665.38171	1033.24402	-33.33695	1671.11047	1142.90967	-180.37497	1618.77576	1063.85059	-147.22763	1624.58655	1180.51147	-208.58603	1423.55896	1096.42419	-238.24663	1130.08386	1094.98511	-63.54208	1359.12073	1093.87646	-17.22267	1205.48755	1083.9082	-258.17776	1226.61584	1165.5387	-125.53335	1391.09924	933.51263	-146.89188	1209.3208	841.97168	-143.2224	1056.4314	827.93134	-66.27708	970.63861	798.90045	53.07395	900.64868	810.60022	5.10601	871.77106	789.36444	77.38814	833.401	772.56409	-124.38287	1383.76208	1247.81506	-202.61946	1183.57251	1334.66248	-214.16725	1061.26648	1330.89526	-210.99432	941.80188	1359.74316	-154.92506	811.33142	1342.37012	-199.92844	820.4975	1379.73596	-182.38818	734.08331	1369.54541	-69.19596	923.15881	978.39197	-53.95725	931.19098	1193.63379	-250.42885	934.78265	1042.30859	-240.1469	938.21796	1187.95447	-139.27664	589.67261	927.57056	-176.13271	458.61545	936.54291	-321.89569	333.53302	929.84735	-466.52899	165.09114	977.70282	-510.26852	173.44765	1034.54675	-391.358	36.58857	983.53589	-39.91019	604.20642	1256.59521	10.85833	455.55383	1228.1438	-12.8497	280.05923	1241.76941	-11.36204	74.75668	1196.97473	-59.57478	35.80738	1148.24768	130.13564	37.39866	1193.32263	-50.13573	1704.52307	1122.98596	-1973.16589	1023.58057	3101.87915	-2012.59766	1022.16644	3140.61914	NaN	NaN	NaN
95	0.94	-58.14711	1666.22278	1035.35095	-23.00577	1671.7804	1144.95325	-170.29112	1619.76782	1066.24255	-136.79309	1625.2345	1182.7688	-198.47487	1424.31824	1098.43311	-227.86856	1130.82617	1096.5022	-53.35641	1360.20544	1095.32739	-6.90593	1206.58118	1085.07703	-247.55763	1227.27502	1167.62854	-115.93886	1392.29431	935.25842	-137.72488	1210.68896	843.63416	-135.82205	1058.10193	829.69196	-60.497	970.32019	801.14423	57.10608	897.20471	812.71936	8.38424	869.6496	791.43219	79.74797	829.03156	775.12549	-113.76064	1384.6095	1249.38855	-190.27719	1183.97412	1336.75525	-200.82588	1061.56018	1333.19946	-196.33975	942.12079	1362.04651	-139.0201	812.20819	1344.40125	-183.83401	820.88855	1381.81812	-165.48201	734.59418	1371.72229	-58.71046	924.21594	980.55725	-43.48424	932.28442	1195.52063	-239.88751	935.91968	1044.02783	-229.28287	939.77783	1189.69238	-121.78314	589.25635	927.65698	-157.07491	458.16797	935.86621	-305.90103	337.36353	929.64825	-454.5769	171.95135	976.60107	-495.59494	183.11275	1034.58154	-389.66498	37.34238	984.52997	-30.83049	604.68762	1258.04858	16.40575	455.03699	1229.57446	-10.11293	279.78934	1242.04456	-11.22203	74.83218	1196.91992	-59.73989	35.82809	1148.3457	130.54359	37.06226	1193.18555	-39.83774	1705.35413	1125.20532	-1972.92834	1023.91663	3102.09863	-2012.58337	1022.04089	3140.55713	NaN	NaN	NaN
96	0.95	-48.04271	1667.28296	1037.30859	-12.69479	1672.43982	1146.95898	-160.22195	1620.67529	1067.8407	-126.41252	1625.85815	1184.82422	-188.42509	1425.14941	1100.34827	-217.52101	1131.6012	1098.14722	-43.30177	1361.19873	1096.76123	3.31492	1207.64697	1086.13306	-236.94122	1228.021	1169.74609	-106.40643	1393.51685	936.85223	-128.25577	1211.97156	845.31659	-128.01308	1059.20923	832.35492	-54.94027	969.95428	803.3446	60.92746	893.70087	815.04779	11.48146	867.58276	793.57391	81.84911	824.6131	777.80701	-103.13275	1385.45288	1250.92493	-177.95259	1184.49158	1338.77222	-187.45847	1061.90967	1335.4281	-181.51387	942.54669	1364.33484	-122.82376	813.36212	1346.5199	-167.55521	821.54053	1384.24768	-148.25314	735.38269	1374.33826	-48.53731	925.203	982.65698	-33.17665	933.42053	1197.24463	-229.59781	937.0509	1045.88855	-219.01282	941.33984	1191.61694	-104.81168	589.10754	927.57434	-138.02574	457.72156	935.22821	-289.0289	341.16336	929.80078	-441.10532	178.70052	975.25275	-480.21887	192.64363	1033.84009	-386.24124	39.76072	984.92444	-22.98196	605.24268	1259.81079	21.4172	454.72791	1231.05493	-7.4877	279.59366	1242.66931	-11.12969	74.88913	1197.07251	-59.70519	35.97365	1148.55969	130.58241	36.7611	1193.26538	-29.56675	1706.02515	1127.26648	-1973.13477	1023.37885	3101.76245	-2012.56079	1022.06396	3140.73999	NaN	NaN	NaN
97	0.96	-38.11036	1668.28027	1039.24036	-2.40293	1673.14355	1148.76355	-150.21547	1621.64404	1070.12842	-116.1235	1626.56226	1186.90381	-178.38052	1426.14636	1102.58057	-207.33188	1132.43103	1099.91382	-33.30305	1362.19812	1097.85608	13.52937	1208.69019	1087.08032	-226.45383	1228.89368	1171.94873	-96.90567	1394.62793	938.36536	-119.08251	1213.25525	846.64569	-120.67817	1060.44849	834.44336	-49.58207	969.44885	805.54083	64.44147	890.05219	817.38971	14.2495	865.52582	795.75385	83.66817	820.0307	780.66437	-92.51086	1386.39124	1252.12683	-165.60648	1185.00146	1340.78162	-174.10524	1062.30835	1337.64233	-166.54727	943.06342	1366.57898	-106.46872	814.52856	1348.5116	-150.94647	822.16931	1386.3645	-130.71313	736.33386	1376.57361	-38.64834	926.23944	984.40564	-23.0943	934.42029	1198.74585	-219.59259	938.08691	1047.71814	-208.80148	942.73718	1193.36792	-88.60304	589.18146	927.5509	-119.12262	457.43469	934.50677	-271.41971	344.62344	929.53552	-426.13135	184.95284	974.74231	-464.77573	201.93965	1032.46594	-379.59003	43.51616	986.2666	-16.26695	605.87756	1260.97546	25.98554	454.51541	1232.64783	-5.45308	279.57733	1243.23584	-11.01181	74.74672	1197.21472	-59.55893	35.9593	1148.81946	130.84238	36.44107	1193.24963	-19.24323	1706.79919	1129.18604	-1973.35864	1023.03119	3102.07983	-2012.66443	1022.12952	3140.6897	NaN	NaN	NaN
